<svg xmlns="http://www.w3.org/2000/svg">

  <!-- like-icon -->
  <symbol width="23" height="21" viewBox="0 0 23 21" fill="currentColor" id="like-icon">
    <path opacity=".3" d="m13 3.8-.7 3-.6 2.6h9.1v2.2l-3 7.3H8.4V8.4L13 3.8Zm.8-3.8L6.9 7c-.4.2-.6.8-.6 1.4v10.5c0 1.2 1 2.1 2 2.1h9.5a2 2 0 0 0 1.9-1.3l3-7.4c.2-.2.2-.5.2-.8v-2h.1c0-1.2-1-2.2-2-2.2h-6.7l1-4.8v-.3c0-.4-.1-.8-.4-1.2l-1.1-1ZM4.2 8.4H0V21h4.2V8.4Z"/>
  </symbol>

  <!-- mail-icon -->
  <symbol width="16" height="12" viewBox="0 0 16 12" fill="currentColor" id="mail-icon">
    <path d="m8 8-1-.3L0 4v7c0 .5.5 1 1 1h14c.5 0 1-.5 1-1V4L9 7.7 8 8Zm7-8H1a1 1 0 0 0-1 1v.8L8 6l8-4.2V1c0-.5-.5-1-1-1Z"/>
  </symbol>

  <!-- phone-icon -->
  <symbol width="18" height="18" viewBox="0 0 18 18" fill="currentColor" id="phone-icon">
    <path d="M3.6 7.8c1.4 2.8 3.8 5.1 6.6 6.6l2.2-2.2c.3-.3.7-.4 1-.2 1.1.4 2.3.6 3.6.6.6 0 1 .4 1 1V17c0 .6-.4 1-1 1A17 17 0 0 1 0 1c0-.6.4-1 1-1h3.5c.6 0 1 .4 1 1 0 1.2.2 2.4.6 3.6.1.3 0 .7-.2 1L3.6 7.8Z"/>
  </symbol>

  <!-- Vkontakte-icon -->
  <symbol aria-hidden="true" focusable="false" width="24" height="14" fill="currentColor" id="vkontakte-icon">
      <path fill-rule="evenodd" clip-rule="evenodd" d="M24.116 1.804c.166-.546 0-.948-.795-.948h-2.625c-.668 0-.976.347-1.143.73 0 0-1.335 3.196-3.226 5.272-.612.602-.89.793-1.224.793-.167 0-.418-.19-.418-.738V1.804c0-.656-.184-.948-.74-.948H9.817c-.417
    0-.668.304-.668.593 0 .621.946.765 1.043 2.513V7.76c0 .833-.153.984-.487.984-.89 0-3.055-3.21-4.34-6.885-.249-.715-.5-1.003-1.172-1.003H1.566c-.75 0-.9.347-.9.73 0 .682.89 4.07 4.145 8.551 2.17 3.06 5.225 4.72 8.008 4.72 1.67 0 1.875-.369
    1.875-1.004V11.54c0-.737.158-.884.687-.884.39 0 1.057.192 2.615 1.667 1.78 1.75 2.073 2.533 3.075 2.533h2.625c.75 0 1.126-.368.91-1.096-.238-.724-1.088-1.775-2.215-3.022-.612-.71-1.53-1.475-1.809-1.858-.389-.49-.278-.71 0-1.147 0 0 3.2-4.426
    3.533-5.929h.001Z"/>
  </symbol>

  <!-- Youtube-icon -->
  <symbol aria-hidden="true" focusable="false" width="18" height="16" fill="currentColor" id="youtube-icon">
    <path d="M16.79.96.84 7.1c-1.09.44-1.08 1.05-.2 1.32l4.1 1.28 9.47-5.98c.44-.27.85-.13.52.17l-7.68 6.93-.28 4.22c.41 0 .6-.2.83-.41l1.99-1.94 4.13 3.06c.77.42 1.31.2 1.5-.71l2.72-12.8c.28-1.1-.43-1.61-1.16-1.28Z"/>
  </symbol>

  <!--Telegramm-icon -->
  <symbol aria-hidden="true" focusable="false" width="22" height="17" fill="currentColor" id="telegramm-icon">
    <path d="M18.94.356H3.507C1.647.356.333 1.95.333 3.756V13.85c0 1.913 1.314 3.506 3.174 3.506H19.16c1.642 0 3.174-1.593 3.174-3.4v-10.2c-.219-1.806-1.532-3.4-3.393-3.4ZM7.995 12.894V4.819l7.333 4.037-7.333 4.038Z"/>
  </symbol>

  <!-- HTMLAcademy-icon -->
  <symbol width="27" height="35" viewBox="0 0 27 35" fill="currentColor" id="htmlacademy-icon">
    <path d="M13.6 0H13.5L0 1.4V26.1L13.5 34.1L26.9 26.1V1.4L13.6 0ZM25 12.1L13.5 5.3V5.2H13.4L13.3 5.1V5.2L1.9 12.1V3.1L13.4 1.9L25 3.1V12.1ZM13.4 6.8L24.9 13.5L20.4 16.1L13.3 11.9V13.3L19.2 16.8L18.3 17.3L13.3 14.3V15.7L17.1 18L16.3 18.5L13.3 16.7V18.1L15.2 19.2L13.4 20.3L2 13.6L13.4 6.8ZM1.9 15.1L13.3 21.9V22.9L5.4 18.2V19.6L13.4 24.4V25.5L5.4 20.8V22.2L13.4 27L21.5 22.1V16.9L24.9 14.9V24.9L13.4 31.8L1.9 25V15.1Z" />
  </symbol>
</svg>
