<svg xmlns="http://www.w3.org/2000/svg">
<!--advantages-food-->
  <symbol width="75" height="70" viewBox="0 0 75 70" fill="none" id="advantages-food">
    <path d="M70.5757 46.7H4.6103C2.30452 46.7 0.5 48.6 0.5 51V54.5C0.5 56.9 2.40477 58.8 4.6103 58.8H5.51257V59.9C5.51257 65.4 9.82337 70 15.1367 70H59.8488C65.1621 70 69.4729 65.5 69.4729 59.9V58.8H70.3752C72.681 58.8 74.4855 56.9 74.4855 54.5V51C74.686 48.7 72.7812 46.7 70.5757 46.7ZM66.6659 59.9C66.6659 63.8 63.6583 66.9 59.949 66.9H15.1367C11.4274 66.9 8.41985 63.7 8.41985 59.9V58.8H66.6659V59.9ZM71.7787 54.5C71.7787 55.2 71.1772 55.8 70.5757 55.8H4.51005C3.80829 55.8 3.30704 55.2 3.30704 54.5V51C3.30704 50.3 3.90855 49.7 4.51005 49.7H70.4754C71.1772 49.7 71.6784 50.3 71.6784 51C71.7787 51 71.7787 54.5 71.7787 54.5Z" fill="#83B3D3"/>
    <path d="M16.1392 38.4L21.5528 42.5L26.8661 38.4L32.1794 42.5L37.4927 38.4L42.9063 42.5L48.2196 38.4L53.5329 42.5L58.9465 38.4L64.2598 42.5L70.4754 37.8L68.7711 35.3L64.2598 38.7L58.9465 34.6L53.5329 38.7L48.2196 34.6L42.9063 38.7L37.4927 34.6L32.1794 38.7L26.8661 34.6L21.5528 38.7L16.1392 34.6L10.8259 38.7L6.31458 35.3L4.6103 37.8L10.8259 42.5L16.1392 38.4Z" fill="#83B3D3"/>
    <path d="M8.52011 31.5H69.4729C69.4729 30.9 69.5732 30.3 69.5732 29.6C69.5732 29.2 69.5732 28.8 69.5732 28.4C68.8714 12.7 54.8362 0 37.593 0C20.2495 0 6.21432 12.7 5.51257 28.5C5.51257 28.9 5.51257 29.3 5.51257 29.7C5.51257 30.3 5.50815 30.9 5.6084 31.5H8.52011ZM37.593 3C53.2322 3 66.0644 14.3 66.6659 28.5H8.52011C9.12161 14.4 21.9538 3 37.593 3Z" fill="#83B3D3"/>
    <path d="M37.593 17.3C38.645 17.3 39.4978 16.4046 39.4978 15.3C39.4978 14.1954 38.645 13.3 37.593 13.3C36.541 13.3 35.6882 14.1954 35.6882 15.3C35.6882 16.4046 36.541 17.3 37.593 17.3Z" fill="#83B3D3"/>
    <path d="M29.7734 12.2C30.8254 12.2 31.6782 11.3046 31.6782 10.2C31.6782 9.09543 30.8254 8.2 29.7734 8.2C28.7214 8.2 27.8686 9.09543 27.8686 10.2C27.8686 11.3046 28.7214 12.2 29.7734 12.2Z" fill="#83B3D3"/>
    <path d="M45.3123 12.2C46.3643 12.2 47.2171 11.3046 47.2171 10.2C47.2171 9.09543 46.3643 8.2 45.3123 8.2C44.2604 8.2 43.4076 9.09543 43.4076 10.2C43.4076 11.3046 44.2604 12.2 45.3123 12.2Z" fill="#83B3D3"/>
  </symbol>
<!-- advantages-housing -->
  <symbol width="76" height="72" viewBox="0 0 76 72" fill="none" id="advantages-housing">
    <path d="M30.1185 65H46.1827V41.2H30.1185V65ZM33.0301 44.1H43.1707V62.1H33.0301V44.1Z" fill="#83B3D3"/>
    <path d="M73.3916 39.3L75.5 37.2L65.5602 27.3V0H51.6044V13.6L37.9498 0L0.5 37.2L2.60843 39.3L10.4398 31.5V69.1H6.42369V72H70.5803V69.1H65.4598V31.5L73.3916 39.3ZM62.5482 69.1H13.3514V28.5L37.9498 4.1L62.5482 28.5V69.1ZM62.5482 24.4L54.6165 16.5V2.9H62.5482V24.4Z" fill="#83B3D3"/>
    <path d="M30.3193 27.1C30.3193 31.4 33.8333 34.8 38.0502 34.8C42.3675 34.8 45.8815 31.3 45.8815 27.1C45.8815 22.8 42.3675 19.4 38.0502 19.4C33.8333 19.4 30.3193 22.8 30.3193 27.1ZM38.1506 22.1C40.8614 22.1 43.1707 24.3 43.1707 27C43.1707 29.7 40.9618 31.9 38.1506 31.9C35.4398 31.9 33.1305 29.7 33.1305 27C33.1305 24.3 35.3394 22.1 38.1506 22.1Z" fill="#83B3D3"/>
    <path d="M20.4799 41.2H17.4679V45.1H20.4799V41.2Z" fill="#83B3D3"/>
    <path d="M26.4036 41.2H23.3916V45.1H26.4036V41.2Z" fill="#83B3D3"/>
    <path d="M20.4799 47.2H17.4679V51.1H20.4799V47.2Z" fill="#83B3D3"/>
    <path d="M26.4036 47.2H23.3916V51.1H26.4036V47.2Z" fill="#83B3D3"/>
    <path d="M52.508 41.2H49.496V45.1H52.508V41.2Z" fill="#83B3D3"/>
    <path d="M58.4317 41.2H55.4197V45.1H58.4317V41.2Z" fill="#83B3D3"/>
    <path d="M52.508 47.2H49.496V51.1H52.508V47.2Z" fill="#83B3D3"/>
    <path d="M58.4317 47.2H55.4197V51.1H58.4317V47.2Z" fill="#83B3D3"/>
  </symbol>
<!-- advantages-souvenir -->
  <symbol width="65" height="76" viewBox="0 0 65 76" fill="none" id="advantages-souvenir">
    <path d="M61.6 22.5H36.8c13.8-7 14.9-11.3 14.4-13.7-1.2-4-5.7-7-10-5.5-5.6 2.2-7.1 10.5-8.6 16.5-2-6.1-3.8-13.8-8.2-17.8a7.3 7.3 0 0 0-5.8-2c-4 .4-9.8 5.5-7.5 11 2.3 5.5 9.7 8.9 14.6 11.6H3.4a2.9 2.9 0 0 0-2.9 2.9v11.3c0 1.6 1.3 2.9 2.9 2.9h.3V76h57.8V39.6h.1c1.6 0 2.9-1.3 2.9-3V25.5c0-1.6-1.3-3-2.9-3ZM42.9 5.9c2.1-.3 5 1.3 5.3 3.2.4 2.8-3.4 5.3-5.1 6.4-2.5 1.7-4.9 2.6-7.3 4 .9-3.6 2.5-13 7.1-13.6ZM20 15.9c-2.2-1.5-6.5-4.4-6.4-7.8.1-3.7 5.7-6.7 8.8-4 3.9 3.5 5.7 11.2 7.1 16.7-3.2-1.5-6.3-2.8-9.5-5ZM26 73H6.6V39.6H26V73Zm0-36.5H3.5v-11H26v11Zm10.2 0V73H29V25.6h7.2v10.9ZM58.5 73H39.1V39.6h19.4V73Zm2.9-36.5H39.1v-11h22.3v11Z" fill="#83B3D3"/>
  </symbol>
<!-- like-icon -->
  <symbol width="23" height="21" viewBox="0 0 23 21" fill="none" id="like-icon">
    <path opacity=".3" d="m13 3.8-.7 3-.6 2.6h9.1v2.2l-3 7.3H8.4V8.4L13 3.8Zm.8-3.8L6.9 7c-.4.2-.6.8-.6 1.4v10.5c0 1.2 1 2.1 2 2.1h9.5a2 2 0 0 0 1.9-1.3l3-7.4c.2-.2.2-.5.2-.8v-2h.1c0-1.2-1-2.2-2-2.2h-6.7l1-4.8v-.3c0-.4-.1-.8-.4-1.2l-1.1-1ZM4.2 8.4H0V21h4.2V8.4Z" fill="#000"/>
  </symbol>
<!-- mail -->
  <symbol width="16" height="12" viewBox="0 0 16 12" fill="currentColor" id="mail-icon">
    <path d="m8 8-1-.3L0 4v7c0 .5.5 1 1 1h14c.5 0 1-.5 1-1V4L9 7.7 8 8Zm7-8H1a1 1 0 0 0-1 1v.8L8 6l8-4.2V1c0-.5-.5-1-1-1Z"/>
  </symbol>
<!-- phone -->
  <symbol width="18" height="18" viewBox="0 0 18 18" fill="currentColor" id="phone-icon">
    <path d="M3.6 7.8c1.4 2.8 3.8 5.1 6.6 6.6l2.2-2.2c.3-.3.7-.4 1-.2 1.1.4 2.3.6 3.6.6.6 0 1 .4 1 1V17c0 .6-.4 1-1 1A17 17 0 0 1 0 1c0-.6.4-1 1-1h3.5c.6 0 1 .4 1 1 0 1.2.2 2.4.6 3.6.1.3 0 .7-.2 1L3.6 7.8Z"/>
  </symbol>
<!-- Vkontakte-icon -->
  <symbol aria-hidden="true" focusable="false" width="24" height="14" fill="currentColor" id="vkontakte-icon">
      <path fill-rule="evenodd" clip-rule="evenodd" d="M24.116 1.804c.166-.546 0-.948-.795-.948h-2.625c-.668 0-.976.347-1.143.73 0 0-1.335 3.196-3.226 5.272-.612.602-.89.793-1.224.793-.167 0-.418-.19-.418-.738V1.804c0-.656-.184-.948-.74-.948H9.817c-.417
    0-.668.304-.668.593 0 .621.946.765 1.043 2.513V7.76c0 .833-.153.984-.487.984-.89 0-3.055-3.21-4.34-6.885-.249-.715-.5-1.003-1.172-1.003H1.566c-.75 0-.9.347-.9.73 0 .682.89 4.07 4.145 8.551 2.17 3.06 5.225 4.72 8.008 4.72 1.67 0 1.875-.369
    1.875-1.004V11.54c0-.737.158-.884.687-.884.39 0 1.057.192 2.615 1.667 1.78 1.75 2.073 2.533 3.075 2.533h2.625c.75 0 1.126-.368.91-1.096-.238-.724-1.088-1.775-2.215-3.022-.612-.71-1.53-1.475-1.809-1.858-.389-.49-.278-.71 0-1.147 0 0 3.2-4.426
    3.533-5.929h.001Z"/>
  </symbol>
<!-- Telegramm-icon -->
  <symbol aria-hidden="true" focusable="false" width="18" height="16" fill="currentColor" id="youtube-icon">
    <path d="M16.79.96.84 7.1c-1.09.44-1.08 1.05-.2 1.32l4.1 1.28 9.47-5.98c.44-.27.85-.13.52.17l-7.68 6.93-.28 4.22c.41 0 .6-.2.83-.41l1.99-1.94 4.13 3.06c.77.42 1.31.2 1.5-.71l2.72-12.8c.28-1.1-.43-1.61-1.16-1.28Z"/>
  </symbol>
<!-- Youtube-icon -->
  <symbol aria-hidden="true" focusable="false" width="22" height="17" fill="currentColor" id="telegramm-icon">
    <path d="M18.94.356H3.507C1.647.356.333 1.95.333 3.756V13.85c0 1.913 1.314 3.506 3.174 3.506H19.16c1.642 0 3.174-1.593 3.174-3.4v-10.2c-.219-1.806-1.532-3.4-3.393-3.4ZM7.995 12.894V4.819l7.333 4.037-7.333 4.038Z"/>
  </symbol>
<!-- HTMLAcademy-icon -->
  <symbol viewBox="0 0 60 60" width="27" height="34" id="htmlacademy-icon">
    <path fill="currentColor" d="M30.2 5h-.2l-19.7 2.1v36.2l19.7 11.7 19.7-11.7v-36.2l-19.5-2.1zm17 36.8l-17.2 10.2-17.2-10.2v-14.8l17.1 10.2v1.8l-11.7-7v1.8l11.8 7.1v1.9l-11.8-7v1.8l11.8 7 11.9-7.1v-7.6l5.3-3.2v15.1zm-.1-17l-4.7 2.8-2.2 1.3-10.3-6.1v1.8l8.8 5.3h-.1l-.2.1-1.3.7-7.3-4.3v1.8l5.8 3.4-1.4.9-4.3-2.6v1.8l2.9 1.7-2.9 1.7-17-10.1 17-10.2 17.2 10zm.1-1.8l-17.3-10.2-17.1 10.2v-13.6l17.2-1.8 17.2 1.8v13.6z"/>
  </symbol>
<!-- Welcome to sedona-->
  <symbol width="229" height="39" viewBox="0 0 229 39" fill="none" xmlns="http://www.w3.org/2000/svg" id="hi">
    <path d="M27.3 26.6v.7c-.3 2-1 4-2 5.8-1 1.8-2.5 3.2-4.2 4.2L19 38l-2.1.5-1.8.3-1.7.1h-.6A19.7 19.7 0 0 1 0 33.6L4.7 26l.2.2c1 1.1 2.2 2.2 3.5 3.2 1.3 1 2.9 1.5 4.6 1.6h.1l.2.1h.1l.2.1h.5l.5-.1a4.8 4.8 0 0 0 3-2l.1-.3.1-.3.2-.7v-.7c0-1-.4-2-1.3-2.6-1-.7-2-1.3-3-1.7l-1.2-.4-1-.2h-.2v-.1c-2-.5-3.8-1.2-5.4-2.3A8.2 8.2 0 0 1 2 14.2 11 11 0 0 1 2 13V11c0-.3 0-.6.2-1 0-.7.3-1.5.6-2.3.2-.7.6-1.4 1-2a11 11 0 0 1 4.8-4.5 16 16 0 0 1 6-1.2l1.6.1 1.6.2a20.5 20.5 0 0 1 8 3l-3.2 7.3A28 28 0 0 0 19 8.5a8 8 0 0 0-3.7-.9h-.5c-1 .1-1.7.5-2.5 1.2s-1.2 1.5-1.2 2.3v.3l.2.4.4.7.7.7 1.8 1 2.6.8 2.1.5 1.8.5a9 9 0 0 1 5 3.9c1 1.8 1.6 3.7 1.6 5.7v1Zm30 3.2V38H34.7V.9h22.8V9H44.6v6.5h12v8h-12v6.3h12.8Zm38.5-1.5a15.8 15.8 0 0 1-11.1 8.8c-2.2.5-4.3.8-6.5.9H64.5V1h14.3c2 .1 4.1.4 6.2.9a15.3 15.3 0 0 1 10.7 8.6c1.2 2.5 1.9 5 2 7.6v2.3c0 2.8-.7 5.4-2 8Zm-8.2-9.2v-.5c-.2-1.4-.5-2.9-1.1-4.2a8.4 8.4 0 0 0-2.6-3.3 6.9 6.9 0 0 0-2.7-1.4c-1-.3-2-.4-3-.4h-3.8v20.5h.4l.4.1h.4l.3.1h1.2l1.2-.1 3-.5c1-.3 1.8-.8 2.6-1.3a7.9 7.9 0 0 0 2.8-3.6c.6-1.6.9-3.2.9-4.8V19Zm54.9 2c0 .4 0 .8-.2 1.2a18.7 18.7 0 0 1-8.9 13.6 21 21 0 0 1-10.8 3H121a21.3 21.3 0 0 1-7.7-2.2 19 19 0 0 1-7.6-7.3 19.4 19.4 0 0 1-2.9-10l.1-1.5.2-1.5a25.1 25.1 0 0 1 2.2-6c1.8-3.4 4.2-5.9 7.4-7.6A20.3 20.3 0 0 1 124.1.2l1.4.1a21.1 21.1 0 0 1 8.3 3c2.8 1.8 5 4.2 6.4 7.2 1.5 3 2.3 6 2.3 9.3V21Zm-10.1-2.2v-.7c-.3-1.6-.8-3.2-1.6-4.8a9 9 0 0 0-3.3-3.6l-1.2-.5-1.1-.4-1.2-.2-1.2-.1c-2 0-3.8.6-5.4 1.9a9.9 9.9 0 0 0-3.5 5l-.1.2v.2l-.4 1-.2 1.2-.1.8v1.8c0 2 .7 4 1.9 5.8a8 8 0 0 0 5.4 4h.8l.7.2h.7a9.9 9.9 0 0 0 9.6-9.3l.1-.8V19Zm43.8 19.2-14-19.2c-.5-.5-.8-1-1.2-1.7a25 25 0 0 1-1.6-3.5l-.6-1.3a42.8 42.8 0 0 1 .6 7.4V38h-9.8V.9h9.8l14 19.1 1 1.7 1 1.9.6 1.5.7 1.4-.1-1.2-.2-1.2-.1-2.4V1h9.6V38h-9.7Zm42.7 0-1.9-6.7h-14.3l-2 6.7h-10L203.6 1H216L229 38h-10.1ZM211 11.9l-.5-1.8-.5-2-.1-.6-.1-.6-.2.6-.1.6-.1.2v.2l-.4 1.8-.5 1.6-3.8 12.3H215L211.1 12Z" fill="#fff"/>
  </symbol>
</svg>
